<?xml version="1.0" encoding="utf-8"?>
<!-- Generator: Adobe Illustrator 15.1.0, SVG Export Plug-In . SVG Version: 6.00 Build 0)  -->
<!DOCTYPE svg PUBLIC "-//W3C//DTD SVG 1.1//EN" "http://www.w3.org/Graphics/SVG/1.1/DTD/svg11.dtd">
<svg version="1.1" id="Layer_1" xmlns="http://www.w3.org/2000/svg" xmlns:xlink="http://www.w3.org/1999/xlink" x="0px" y="0px"
	 width="287px" height="49.09px" viewBox="-21.717 0 287 49.09" enable-background="new -21.717 0 287 49.09" xml:space="preserve">
<text transform="matrix(1 0 0 1 35.2834 43.0449)" fill="#FFFFFF" font-family="'Futura-Medium'" font-size="47">Codezine</text>
<text transform="matrix(1 0 0 1 239.6697 43.0449)" fill="#DA0081" font-family="'Futura-Medium'" font-size="47">.</text>
<path fill="#D80580" d="M22.121,18.509l-1.588-1.589l-7.394,7.394l-7.223-7.223l7.392-7.394l-1.587-1.588l-7.393,7.393l-7.393-7.393
	l-1.588,1.588l7.393,7.394l-7.223,7.223l-7.393-7.394l-1.587,1.589l7.392,7.393l-7.392,7.393l1.587,1.588l7.393-7.394l7.223,7.224
	l-7.393,7.393l1.588,1.588L4.328,36.3l7.393,7.393l1.587-1.588l-7.392-7.393l7.223-7.224l7.394,7.394l1.588-1.588l-7.394-7.393
	L22.121,18.509z M4.328,33.124l-7.223-7.223l7.223-7.225l7.223,7.225L4.328,33.124z"/>
</svg>
